<?xml version="1.0" encoding="utf-8"?>
<!-- Generator: Adobe Illustrator 19.1.0, SVG Export Plug-In . SVG Version: 6.00 Build 0)  -->
<svg version="1.1" id="Layer_1" xmlns="http://www.w3.org/2000/svg" xmlns:xlink="http://www.w3.org/1999/xlink" x="0px" y="0px" viewBox="0 0 144 144" style="enable-background:new 0 0 144 144;" xml:space="preserve">
  <style type="text/css">
	.st0{fill:#FFFFFF;}
	.st1{fill:#B0C6D2;}
	.st2{fill:#5C6670;}
	.st3{fill:#FFFFFF;stroke:#333E48;stroke-width:1.5233;stroke-miterlimit:10;}
	.st4{fill:#333E48;}
	.st5{fill:#E2231A;}
	.st6{fill:#45BCD8;}
	.st7{fill:#FF8C47;}
	.st8{fill:#D0D5D6;}
	.st9{fill:#F6F9FB;}
	.st10{fill:#008FBE;}
	.st11{fill:#C3C6C8;}
	.st12{fill:#FF6C0C;}
	.st13{fill:#E7EAED;}
	.st14{fill:#AAB5BE;}
	.st15{fill:#EF8425;}
	.st16{fill:#0391C2;}
	.st17{fill:#465259;}
	.st18{fill:#732282;}
	.st19{fill:#293B4D;}
	.st20{fill:none;stroke:#333E48;stroke-width:1.3501;stroke-miterlimit:10;}
	.st21{fill:#FFFFFF;stroke:#333E48;stroke-width:2.0566;stroke-miterlimit:10;}
	.st22{fill:#F1F2F2;}
	.st23{opacity:0.11;fill:#010101;}
	.st24{fill:#F7A800;}
	.st25{fill:none;stroke:#5C6670;stroke-width:0.8126;stroke-miterlimit:10;}
	.st26{fill:#B34FC5;}
	.st27{fill:#FFFFFF;stroke:#FFFFFF;stroke-width:4.8756;stroke-miterlimit:10;}
	.st28{fill:#364A5E;}
	.st29{fill:#5E6E7F;}
	.st30{fill:#FBFBFB;}
	.st31{fill:#63A70A;}
	.st32{fill:#C4D600;}
	.st33{fill:#F5F6F7;}
	.st34{fill:#D1D5D7;}
	.st35{fill:#FFFFFF;stroke:#FFFFFF;stroke-width:3.7892;stroke-miterlimit:10;}
	.st36{fill:#A4A9AD;}
	.st37{fill:#FBFADB;}
	.st38{fill:#70B344;}
	.st39{fill:#FFFFFF;stroke:#5C6670;stroke-width:2.7605;stroke-miterlimit:10;}
	.st40{fill:none;stroke:#732282;stroke-width:0.9879;stroke-miterlimit:10;}
	.st41{fill:#CDD3DA;}
	.st42{fill:#C2531A;}
	.st43{fill:#005D84;}
	.st44{fill:none;stroke:#C4D600;stroke-width:1.6258;stroke-miterlimit:10;}
	.st45{fill:none;stroke:#D0D5D6;stroke-width:1.7199;stroke-miterlimit:10;}
</style>
  <g>
    <g>
      <path class="st0" d="M33.3,117.6c-0.7,0-1.2-0.5-1.2-1.2V57.5c0-4,3.2-7.2,7.2-7.2h3.1v-5.3c0-15,12.2-27.3,27.3-27.3
			C84.8,17.8,97,30,97,45.1v5.3h7.8c0.7,0,1.2,0.5,1.2,1.2v58.9c0,4-3.2,7.2-7.2,7.2H33.3z" />
      <path class="st0" d="M69.8,19c14.4,0,26.1,11.7,26.1,26.1v6.5h9V105v5.4c0,3.3-2.7,6-6,6H33.3V105V57.5c0-3.3,2.7-6,6-6h4.3v-6.5
			C43.7,30.7,55.3,19,69.8,19 M69.8,16.6c-15.7,0-28.5,12.8-28.5,28.5v4.1h-1.9c-4.6,0-8.4,3.8-8.4,8.4V105v11.4
			c0,1.3,1.1,2.4,2.4,2.4h65.5c4.6,0,8.4-3.8,8.4-8.4V105V51.6c0-1.3-1.1-2.4-2.4-2.4h-6.6v-4.1C98.2,29.4,85.5,16.6,69.8,16.6
			L69.8,16.6z" />
    </g>
    <path class="st41" d="M69.8,19c-14.4,0-26.1,11.7-26.1,26.1v15.5H52V45.1c0-9.8,8-17.7,17.7-17.7c9.8,0,17.7,7.9,17.7,17.7v15.5
		h8.4V45.1C95.8,30.7,84.2,19,69.8,19z" />
    <path class="st12" d="M33.3,105h71.5V51.6H39.3c-3.3,0-6,2.7-6,6V105z" />
    <path class="st0" d="M94.7,85.9H39.8V74.4c0-2,1.6-3.7,3.7-3.7h54.8v11.5C98.3,84.2,96.7,85.9,94.7,85.9z" />
    <path class="st42" d="M98.9,116.4H33.3V105h71.5v5.4C104.8,113.7,102.2,116.4,98.9,116.4z" />
    <g>
      <g>
        <path class="st43" d="M49.3,81c-1.5,0-2.7-1.2-2.7-2.7c0-1.5,1.2-2.7,2.7-2.7c1.5,0,2.7,1.2,2.7,2.7C52,79.8,50.8,81,49.3,81z" />
        <path class="st43" d="M59.2,81c-1.5,0-2.7-1.2-2.7-2.7c0-1.5,1.2-2.7,2.7-2.7c1.5,0,2.7,1.2,2.7,2.7C61.9,79.8,60.7,81,59.2,81z" />
        <path class="st43" d="M69.1,81c-1.5,0-2.7-1.2-2.7-2.7c0-1.5,1.2-2.7,2.7-2.7c1.5,0,2.7,1.2,2.7,2.7C71.8,79.8,70.6,81,69.1,81z" />
        <path class="st43" d="M79,81c-1.5,0-2.7-1.2-2.7-2.7c0-1.5,1.2-2.7,2.7-2.7c1.5,0,2.7,1.2,2.7,2.7C81.6,79.8,80.4,81,79,81z" />
        <path class="st43" d="M88.9,81c-1.5,0-2.7-1.2-2.7-2.7c0-1.5,1.2-2.7,2.7-2.7c1.5,0,2.7,1.2,2.7,2.7C91.5,79.8,90.3,81,88.9,81z" />
      </g>
    </g>
  </g>
</svg>