<?xml version="1.0" encoding="utf-8"?>
<!-- Generator: Adobe Illustrator 19.1.0, SVG Export Plug-In . SVG Version: 6.00 Build 0)  -->
<svg version="1.1" id="Layer_1" xmlns="http://www.w3.org/2000/svg" xmlns:xlink="http://www.w3.org/1999/xlink" x="0px" y="0px" viewBox="0 0 144 144" style="enable-background:new 0 0 144 144;" xml:space="preserve">
  <style type="text/css">
	.st0{fill:#FFFFFF;}
	.st1{fill:#B0C6D2;}
	.st2{fill:#5C6670;}
	.st3{fill:#FFFFFF;stroke:#333E48;stroke-width:1.5233;stroke-miterlimit:10;}
	.st4{fill:#333E48;}
	.st5{fill:#E2231A;}
	.st6{fill:#45BCD8;}
	.st7{fill:#FF8C47;}
	.st8{fill:#D0D5D6;}
	.st9{fill:#F6F9FB;}
	.st10{fill:#008FBE;}
	.st11{fill:#C3C6C8;}
	.st12{fill:#FF6C0C;}
	.st13{fill:#E7EAED;}
	.st14{fill:#AAB5BE;}
	.st15{fill:#EF8425;}
	.st16{fill:#0391C2;}
	.st17{fill:#465259;}
	.st18{fill:#732282;}
	.st19{fill:#293B4D;}
	.st20{fill:none;stroke:#333E48;stroke-width:1.3501;stroke-miterlimit:10;}
	.st21{fill:#FFFFFF;stroke:#333E48;stroke-width:2.0566;stroke-miterlimit:10;}
	.st22{fill:#F1F2F2;}
	.st23{opacity:0.11;fill:#010101;}
	.st24{fill:#F7A800;}
	.st25{fill:none;stroke:#5C6670;stroke-width:0.8126;stroke-miterlimit:10;}
	.st26{fill:#B34FC5;}
	.st27{fill:#FFFFFF;stroke:#FFFFFF;stroke-width:4.8756;stroke-miterlimit:10;}
	.st28{fill:#364A5E;}
	.st29{fill:#5E6E7F;}
	.st30{fill:#FBFBFB;}
	.st31{fill:#63A70A;}
	.st32{fill:#C4D600;}
	.st33{fill:#F5F6F7;}
	.st34{fill:#D1D5D7;}
	.st35{fill:#FFFFFF;stroke:#FFFFFF;stroke-width:3.7892;stroke-miterlimit:10;}
	.st36{fill:#A4A9AD;}
	.st37{fill:#FBFADB;}
	.st38{fill:#70B344;}
	.st39{fill:#FFFFFF;stroke:#5C6670;stroke-width:2.7605;stroke-miterlimit:10;}
	.st40{fill:none;stroke:#732282;stroke-width:0.9879;stroke-miterlimit:10;}
	.st41{fill:#CDD3DA;}
	.st42{fill:#C2531A;}
	.st43{fill:#005D84;}
	.st44{fill:none;stroke:#C4D600;stroke-width:1.6258;stroke-miterlimit:10;}
	.st45{fill:none;stroke:#D0D5D6;stroke-width:1.7199;stroke-miterlimit:10;}
</style>
  <g>
    <g>
      <g>
        <path class="st0" d="M75.2,123.1c-28.8,0-52.3-23.5-52.3-52.3c0-28.8,23.5-52.3,52.3-52.3c28.8,0,52.3,23.5,52.3,52.3
				C127.5,99.6,104.1,123.1,75.2,123.1z" />
        <path class="st0" d="M75.2,19.8c28.1,0,51,22.9,51,51s-22.9,51-51,51s-51-22.9-51-51S47.1,19.8,75.2,19.8 M75.2,17.2
				c-29.5,0-53.6,24-53.6,53.6c0,29.5,24,53.6,53.6,53.6c29.5,0,53.6-24,53.6-53.6C128.8,41.3,104.8,17.2,75.2,17.2L75.2,17.2z" />
      </g>
      <path class="st8" d="M75.2,19.8c-28.1,0-51,22.9-51,51s22.9,51,51,51s51-22.9,51-51S103.3,19.8,75.2,19.8z" />
      <circle class="st0" cx="75.2" cy="70.8" r="49.7" />
    </g>
    <g>
      <path class="st26" d="M90,75.9H79.2v16.4H75c-2.1,0-3.7-1.7-3.7-3.7V75.9H56.8v-3.7c0-2.1,1.7-3.7,3.7-3.7h10.8V52.2h4.2
			c2.1,0,3.7,1.7,3.7,3.7v12.6h14.5v3.7C93.7,74.2,92,75.9,90,75.9z" />
    </g>
    <g>
      <path class="st0" d="M92.8,125.8L92.8,125.8h-0.4v-14.4c0-1-0.4-1.8-1-2.5c-0.7-0.7-1.5-1-2.5-1H62.2c-0.9,0-1.8,0.4-2.5,1
			c-0.7,0.7-1,1.6-1,2.5v14.4h-0.4c-1.2,0-2.3,0.9-2.5,2.1s0.4,2.4,1.5,2.9c1.7,0.7,3.5,1.1,5.4,1.1h26c1.8,0,3.6-0.4,5.3-1.1
			c0.9-0.4,1.6-1.3,1.6-2.4C95.4,127,94.3,125.8,92.8,125.8z" />
      <g>
        <g>
          <g>
            <path class="st43" d="M89.5,110.8c-0.2-0.2-0.4-0.3-0.7-0.3H62.2c-0.2,0-0.5,0.1-0.7,0.3c-0.2,0.2-0.3,0.4-0.3,0.7v16.5h26.1
						c1.4,0,2.5-1.1,2.5-2.5v-14C89.8,111.2,89.7,110.9,89.5,110.8z" />
          </g>
          <g>
            <path class="st43" d="M58.2,128.4c1.3,0.6,2.8,0.9,4.3,0.9h26c1.5,0,3-0.3,4.3-0.9H58.2z" />
          </g>
        </g>
      </g>
    </g>
    <g>
      <path class="st0" d="M124.4,78.4h-10.2c-2.4,0-4.3,1.9-4.3,4.3v21.6c0,2.4,1.9,4.3,4.3,4.3h10.2c2.4,0,4.3-1.9,4.3-4.3V82.8
			C128.7,80.4,126.8,78.4,124.4,78.4z" />
      <g>
        <g>
          <path class="st43" d="M124.4,81h-10.2c-1,0-1.8,0.8-1.8,1.8v21.6c0,1,0.8,1.8,1.8,1.8h10.2c1,0,1.8-0.8,1.8-1.8V82.8
					C126.1,81.8,125.3,81,124.4,81z" />
        </g>
      </g>
    </g>
    <g>
      <path class="st0" d="M62,22.2c-1.5-4.4-5.7-7.4-10.5-7.4c-3.9,0-7.5,2-9.5,5.3c-4.3,0.7-7.7,4.5-7.7,9l0,5.2l0,1.4
			c0,1.4,1.2,2.6,2.6,2.6h1.4h21.2c4.5,0,8.2-3.7,8.2-8.2C67.8,26.4,65.4,23.2,62,22.2z" />
      <path class="st43" d="M51.6,17.3c-3.5,0-6.5,2.1-7.8,5.2c-0.1,0-0.1,0-0.2,0c-3.6,0-6.6,2.9-6.6,6.6l0,5.2l0,1.4h1.4h21.2
			c3.1,0,5.6-2.5,5.6-5.6c0-3-2.3-5.4-5.3-5.6C59.3,20.4,55.8,17.3,51.6,17.3L51.6,17.3z" />
    </g>
    <g>
      <path class="st0" d="M32,69.5c-0.5-4.2-4.2-7.5-8.7-7.5c-4.6,0-8.3,3.4-8.7,7.8c-1.5,0.6-2.5,2-2.5,3.7v10.9V87
			c0,1.4,1.2,2.6,2.6,2.6h15.5c2.2,0,4-1.8,4-4v-1.2V72.1C34.2,70.8,33.3,69.7,32,69.5z" />
      <path class="st43" d="M29.5,72.1v-1.5c0-3.3-2.8-6-6.2-6s-6.2,2.7-6.2,6v1.5h-1c-0.8,0-1.4,0.6-1.4,1.4v10.9V87h15.5
			c0.8,0,1.4-0.6,1.4-1.4v-1.2V72.1H29.5z M19.1,70.6c0-2.2,1.9-4.1,4.2-4.1c2.3,0,4.2,1.8,4.2,4.1v1.5h-8.4V70.6z M30.1,79.1
			c0,0.5-0.4,0.8-0.9,0.8h-13v-2.6c0-0.5,0.4-0.8,0.9-0.8h13V79.1z" />
    </g>
    <g>
      <path class="st0" d="M120.3,26.2l-4.3-5.4c-0.9-1.1-2.2-1.8-3.7-1.8H96.9c-2.6,0-4.7,2.1-4.7,4.7v21c0,2.6,2.1,4.7,4.7,4.7h19.7
			c2.6,0,4.7-2.1,4.7-4.7V29.2C121.3,28.1,121,27,120.3,26.2z" />
      <g>
        <path class="st43" d="M118.3,27.8l-4.3-5.4c-0.4-0.5-1-0.8-1.7-0.8H96.9c-1.2,0-2.1,1-2.1,2.1v21c0,1.2,1,2.1,2.1,2.1h19.7
				c1.2,0,2.1-1,2.1-2.1V29.2C118.7,28.7,118.6,28.2,118.3,27.8z M111.5,24v4.6c0,0.6-0.5,1.2-1.2,1.2H97V24H111.5z M111.5,31.5v4.6
				c0,0.6-0.5,1.2-1.2,1.2H97v-5.7H111.5z M97,44.6v-5.5h14.4v4.3c0,0.6-0.5,1.2-1.2,1.2H97z" />
        <circle class="st43" cx="109.4" cy="27.8" r="0.9" />
        <circle class="st43" cx="109.4" cy="35.4" r="0.9" />
        <circle class="st43" cx="109.4" cy="43" r="0.9" />
      </g>
    </g>
  </g>
</svg>